<svg width="105" height="87" viewBox="0 0 105 87" fill="none" xmlns="http://www.w3.org/2000/svg">
<path d="M1.48752 69.2685C1.69113 68.1034 2.13228 67.0628 2.81097 66.1465C3.50097 65.219 4.34368 64.5007 5.33909 63.9917C6.34581 63.4714 7.41475 63.2112 8.5459 63.2112C9.86934 63.2112 10.9722 63.5505 11.8545 64.2292C12.7368 64.9079 13.2684 65.8468 13.4494 67.0458H10.7177C10.5367 66.5028 10.2257 66.0956 9.78451 65.8241C9.34336 65.5414 8.80041 65.4 8.15565 65.4C7.46565 65.4 6.8209 65.5583 6.22139 65.875C5.63319 66.1918 5.13548 66.6442 4.72827 67.2324C4.33237 67.8206 4.06655 68.4993 3.93081 69.2685C3.87425 69.6305 3.84597 69.9302 3.84597 70.1678C3.84597 71.084 4.10614 71.8079 4.62646 72.3396C5.15811 72.8712 5.87639 73.137 6.78131 73.137C7.42606 73.137 8.01991 72.9956 8.56287 72.7128C9.10582 72.4301 9.56393 72.0172 9.93721 71.4742H12.6689C12.0581 72.6846 11.1928 73.6291 10.073 74.3078C8.96442 74.9751 7.74844 75.3088 6.42499 75.3088C5.42958 75.3088 4.54728 75.1109 3.7781 74.715C3.02023 74.3078 2.43203 73.7365 2.01351 73.0013C1.59498 72.266 1.38572 71.4233 1.38572 70.4732C1.38572 70.0773 1.41966 69.6757 1.48752 69.2685ZM19.5675 75.3258C18.572 75.3258 17.6897 75.1165 16.9206 74.698C16.1627 74.2682 15.5745 73.68 15.156 72.9334C14.7374 72.1756 14.5282 71.3102 14.5282 70.3374C14.5282 68.9801 14.8279 67.7584 15.4274 66.6725C16.0383 65.5866 16.8753 64.7382 17.9386 64.1274C19.0132 63.5053 20.2179 63.1942 21.5526 63.1942C22.5593 63.1942 23.4416 63.4035 24.1995 63.822C24.9687 64.2405 25.5625 64.8287 25.9811 65.5866C26.3996 66.3332 26.6089 67.1872 26.6089 68.1487C26.6089 69.5287 26.3091 70.7616 25.7096 71.8475C25.1101 72.9334 24.273 73.7874 23.1984 74.4096C22.1238 75.0204 20.9135 75.3258 19.5675 75.3258ZM19.9068 73.137C20.7552 73.137 21.5017 72.9221 22.1465 72.4923C22.8025 72.0624 23.3059 71.4855 23.6566 70.7616C24.0185 70.0264 24.1995 69.2289 24.1995 68.3692C24.1995 67.4417 23.9393 66.7121 23.419 66.1805C22.8987 65.6488 22.1691 65.383 21.2302 65.383C20.3932 65.383 19.6466 65.5979 18.9906 66.0278C18.3458 66.4576 17.8424 67.0345 17.4805 67.7584C17.1298 68.4823 16.9545 69.2742 16.9545 70.1338C16.9545 71.0614 17.209 71.7966 17.718 72.3396C18.2383 72.8712 18.9679 73.137 19.9068 73.137ZM42.3571 63.3639L40.2701 75.207H37.8778L39.2351 67.5378L34.7219 75.207H32.9064L31.0909 67.5209L29.7335 75.207H27.3411L29.445 63.3639H32.1428L34.3655 72.1529L39.6593 63.3639H42.3571ZM52.6802 67.0288C52.5671 67.6623 52.3126 68.2561 51.9167 68.8104C51.5208 69.3646 50.9722 69.8114 50.2709 70.1508C49.5809 70.4901 48.7495 70.6598 47.7767 70.6598H45.7915L44.9941 75.207H42.6017L44.7056 63.3639H49.0662C50.2765 63.3639 51.1928 63.6354 51.8149 64.1783C52.437 64.71 52.7481 65.4226 52.7481 66.3162C52.7481 66.5764 52.7255 66.8139 52.6802 67.0288ZM48.0142 68.7934C48.659 68.7934 49.168 68.6351 49.5413 68.3183C49.9146 68.0016 50.1521 67.5718 50.2539 67.0288C50.2765 66.927 50.2878 66.78 50.2878 66.5877C50.2878 65.6941 49.7336 65.2473 48.6251 65.2473H46.7587L46.1309 68.7934H48.0142ZM57.3699 63.3639L56.0804 70.6768C56.0352 70.9935 56.0126 71.2141 56.0126 71.3385C56.0126 71.9267 56.1879 72.3792 56.5385 72.6959C56.8892 73.0013 57.3869 73.154 58.0317 73.154C58.8008 73.154 59.4286 72.9447 59.915 72.5262C60.4127 72.0964 60.7351 71.4799 60.8822 70.6768L62.1717 63.3639H64.5641L63.2745 70.6768C63.0936 71.6948 62.7259 72.5545 62.1717 73.2558C61.6174 73.9458 60.9444 74.4661 60.1526 74.8168C59.3721 75.1561 58.5294 75.3258 57.6245 75.3258C56.4254 75.3258 55.4526 75.0147 54.7061 74.3926C53.9708 73.7705 53.6032 72.8769 53.6032 71.7118C53.6032 71.3951 53.6371 71.0501 53.705 70.6768L54.9945 63.3639H57.3699ZM74.9186 63.3639L74.5792 65.2303H71.4403L69.6757 75.207H67.2833L69.0479 65.2303H65.892L66.2314 63.3639H74.9186ZM78.7048 65.2133L78.1618 68.2844H82.1491L81.8268 70.1169H77.8395L77.2795 73.3237H81.7759L81.4365 75.207H74.5478L76.6518 63.3469H83.5235L83.2011 65.2133H78.7048ZM90.1276 63.3639C91.3379 63.3639 92.2542 63.641 92.8763 64.1953C93.4984 64.7382 93.8095 65.4509 93.8095 66.3332C93.8095 66.5481 93.7925 66.7687 93.7586 66.9949C93.6228 67.7641 93.2722 68.4654 92.7066 69.0988C92.1524 69.721 91.4058 70.1564 90.4669 70.4053L92.4521 75.207H89.6864L87.9219 70.5919H86.785L85.9706 75.207H83.5782L85.6822 63.3639H90.1276ZM91.3153 67.0458C91.3379 66.8422 91.3492 66.7064 91.3492 66.6386C91.3492 66.2087 91.2135 65.875 90.942 65.6375C90.6705 65.4 90.2577 65.2812 89.7034 65.2812H87.7182L87.0905 68.8273H89.0756C89.7091 68.8273 90.2124 68.669 90.5857 68.3523C90.9703 68.0355 91.2135 67.6 91.3153 67.0458ZM98.9442 75.3258C97.7565 75.3258 96.7781 75.06 96.0089 74.5283C95.251 73.9854 94.8721 73.2275 94.8721 72.2547C94.8721 72.1529 94.8834 72.0002 94.906 71.7966H97.3323C97.2871 72.2717 97.4115 72.6619 97.7056 72.9674C98.011 73.2728 98.4522 73.4255 99.029 73.4255C99.6059 73.4255 100.058 73.3067 100.386 73.0692C100.726 72.8203 100.895 72.4696 100.895 72.0172C100.895 71.5987 100.72 71.265 100.369 71.0161C100.03 70.7673 99.4928 70.4901 98.7576 70.1847C98.0789 69.9019 97.5246 69.6418 97.0948 69.4042C96.6762 69.1667 96.3143 68.8387 96.0089 68.4201C95.7148 67.9903 95.5677 67.453 95.5677 66.8082C95.5677 66.073 95.7544 65.4339 96.1276 64.8909C96.5122 64.348 97.0326 63.9295 97.6886 63.6354C98.356 63.3413 99.1139 63.1942 99.9622 63.1942C100.799 63.1942 101.523 63.3356 102.134 63.6184C102.756 63.8899 103.22 64.2801 103.525 64.7891C103.842 65.2982 103.978 65.892 103.933 66.5707H101.404L101.421 66.3841C101.421 66.0108 101.28 65.7054 100.997 65.4678C100.726 65.2303 100.341 65.1115 99.8435 65.1115C99.3118 65.1115 98.882 65.2359 98.554 65.4848C98.2259 65.7337 98.0619 66.073 98.0619 66.5028C98.0619 66.7856 98.1524 67.0345 98.3334 67.2494C98.5257 67.453 98.7576 67.634 99.029 67.7923C99.3005 67.9394 99.6908 68.1317 100.2 68.3692C100.867 68.6633 101.416 68.9405 101.846 69.2006C102.275 69.4608 102.643 69.8058 102.948 70.2356C103.254 70.6655 103.407 71.1914 103.407 71.8136C103.407 72.4923 103.22 73.0974 102.847 73.6291C102.485 74.1607 101.964 74.5792 101.286 74.8847C100.618 75.1788 99.8378 75.3258 98.9442 75.3258Z" fill="white"/>
<path d="M57.6596 0.747321C48.8747 0.747498 44.6472 7.58243 43.1468 11.4794L26.4857 49.8116C26.1451 50.5952 26.7195 51.4711 27.5739 51.4711H29.3314H31.8813C32.3375 51.4711 32.7543 51.2165 32.951 50.7971C35.3618 45.6554 38.8826 37.8769 42.0497 30.8502C42.8266 29.1264 43.5823 27.4481 44.295 25.8649C46.4886 20.9924 48.276 17.0222 49.0295 15.4075C50.0732 13.1711 50.9425 11.3693 52.1963 10.1154C53.429 8.88269 55.0542 8.16298 57.6596 8.16298H71.4529H85.5753C86.0322 8.16298 86.4485 7.9006 86.6457 7.4884L86.3781 7.36041L86.6457 7.4884L89.0667 2.42638C89.4397 1.64639 88.881 0.739578 88.0128 0.731495C82.8426 0.683353 74.4061 0.707175 67.0647 0.727905C63.507 0.737951 60.2065 0.74727 57.6596 0.747321Z" fill="white" stroke="white" stroke-width="0.59326"/>
<path d="M56.2265 15.7259L53.8655 20.3851C53.5655 20.9771 53.9956 21.6772 54.6592 21.6772H71.2419C71.8536 21.6772 72.2829 22.2802 72.0828 22.8582L70.0283 28.7936C69.9047 29.1506 69.569 29.3907 69.1912 29.3923L50.225 29.4741C49.8756 29.4756 49.5594 29.6814 49.4166 30.0003L40.4235 50.0867C40.16 50.6754 40.5907 51.3403 41.2357 51.3403H66.2863C66.6334 51.3403 66.9488 51.1384 67.0943 50.8233L69.8324 44.8907C70.1045 44.301 69.6738 43.6279 69.0244 43.6279H52.1217C51.5004 43.6279 51.0703 43.0073 51.2885 42.4255L53.2908 37.0862C53.421 36.7389 53.753 36.5088 54.124 36.5088H73.1008C73.452 36.5088 73.7703 36.3022 73.9134 35.9815L82.6113 16.4908C82.874 15.9022 82.4433 15.2383 81.7987 15.2383H57.0203C56.6849 15.2383 56.3781 15.4268 56.2265 15.7259Z" fill="white" stroke="white" stroke-width="0.59326"/>
</svg>
