<svg width="104" height="87" viewBox="0 0 104 87" fill="none" xmlns="http://www.w3.org/2000/svg">
<path d="M0.780493 69.2685C0.9841 68.1034 1.42525 67.0628 2.10394 66.1465C2.79394 65.219 3.63665 64.5007 4.63206 63.9917C5.63878 63.4714 6.70772 63.2112 7.83887 63.2112C9.16231 63.2112 10.2652 63.5505 11.1475 64.2292C12.0298 64.9079 12.5614 65.8468 12.7424 67.0458H10.0107C9.82969 66.5028 9.51862 66.0956 9.07748 65.8241C8.63633 65.5414 8.09338 65.4 7.44862 65.4C6.75862 65.4 6.11386 65.5583 5.51435 65.875C4.92616 66.1918 4.42845 66.6442 4.02124 67.2324C3.62533 67.8206 3.35951 68.4993 3.22378 69.2685C3.16722 69.6305 3.13894 69.9302 3.13894 70.1678C3.13894 71.084 3.3991 71.8079 3.91943 72.3396C4.45107 72.8712 5.16935 73.137 6.07427 73.137C6.71903 73.137 7.31288 72.9956 7.85583 72.7128C8.39879 72.4301 8.8569 72.0172 9.23018 71.4742H11.9619C11.3511 72.6846 10.4858 73.6291 9.36592 74.3078C8.25739 74.9751 7.04141 75.3088 5.71796 75.3088C4.72255 75.3088 3.84025 75.1109 3.07107 74.715C2.3132 74.3078 1.725 73.7365 1.30648 73.0013C0.887953 72.266 0.67869 71.4233 0.67869 70.4732C0.67869 70.0773 0.712624 69.6757 0.780493 69.2685ZM18.8604 75.3258C17.865 75.3258 16.9827 75.1165 16.2135 74.698C15.4557 74.2682 14.8675 73.68 14.4489 72.9334C14.0304 72.1756 13.8211 71.3102 13.8211 70.3374C13.8211 68.9801 14.1209 67.7584 14.7204 66.6725C15.3312 65.5866 16.1683 64.7382 17.2316 64.1274C18.3062 63.5053 19.5108 63.1942 20.8456 63.1942C21.8523 63.1942 22.7346 63.4035 23.4925 63.822C24.2617 64.2405 24.8555 64.8287 25.274 65.5866C25.6926 66.3332 25.9018 67.1872 25.9018 68.1487C25.9018 69.5287 25.6021 70.7616 25.0026 71.8475C24.4031 72.9334 23.566 73.7874 22.4914 74.4096C21.4168 75.0204 20.2065 75.3258 18.8604 75.3258ZM19.1998 73.137C20.0481 73.137 20.7947 72.9221 21.4394 72.4923C22.0955 72.0624 22.5989 71.4855 22.9495 70.7616C23.3115 70.0264 23.4925 69.2289 23.4925 68.3692C23.4925 67.4417 23.2323 66.7121 22.712 66.1805C22.1917 65.6488 21.4621 65.383 20.5232 65.383C19.6862 65.383 18.9396 65.5979 18.2835 66.0278C17.6388 66.4576 17.1354 67.0345 16.7734 67.7584C16.4228 68.4823 16.2475 69.2742 16.2475 70.1338C16.2475 71.0614 16.502 71.7966 17.011 72.3396C17.5313 72.8712 18.2609 73.137 19.1998 73.137ZM41.6501 63.3639L39.5631 75.207H37.1707L38.5281 67.5378L34.0148 75.207H32.1993L30.3838 67.5209L29.0264 75.207H26.6341L28.738 63.3639H31.4358L33.6585 72.1529L38.9523 63.3639H41.6501ZM51.9732 67.0288C51.8601 67.6623 51.6056 68.2561 51.2097 68.8104C50.8138 69.3646 50.2652 69.8114 49.5638 70.1508C48.8738 70.4901 48.0424 70.6598 47.0697 70.6598H45.0845L44.287 75.207H41.8946L43.9986 63.3639H48.3592C49.5695 63.3639 50.4857 63.6354 51.1079 64.1783C51.73 64.71 52.0411 65.4226 52.0411 66.3162C52.0411 66.5764 52.0184 66.8139 51.9732 67.0288ZM47.3072 68.7934C47.952 68.7934 48.461 68.6351 48.8343 68.3183C49.2075 68.0016 49.4451 67.5718 49.5469 67.0288C49.5695 66.927 49.5808 66.78 49.5808 66.5877C49.5808 65.6941 49.0265 65.2473 47.918 65.2473H46.0516L45.4238 68.7934H47.3072ZM56.6629 63.3639L55.3734 70.6768C55.3282 70.9935 55.3055 71.2141 55.3055 71.3385C55.3055 71.9267 55.4809 72.3792 55.8315 72.6959C56.1822 73.0013 56.6799 73.154 57.3246 73.154C58.0938 73.154 58.7216 72.9447 59.208 72.5262C59.7057 72.0964 60.0281 71.4799 60.1751 70.6768L61.4646 63.3639H63.857L62.5675 70.6768C62.3865 71.6948 62.0189 72.5545 61.4646 73.2558C60.9104 73.9458 60.2373 74.4661 59.4455 74.8168C58.665 75.1561 57.8223 75.3258 56.9174 75.3258C55.7184 75.3258 54.7456 75.0147 53.9991 74.3926C53.2638 73.7705 52.8962 72.8769 52.8962 71.7118C52.8962 71.3951 52.9301 71.0501 52.998 70.6768L54.2875 63.3639H56.6629ZM74.2116 63.3639L73.8722 65.2303H70.7333L68.9687 75.207H66.5763L68.3409 65.2303H65.185L65.5243 63.3639H74.2116ZM77.9978 65.2133L77.4548 68.2844H81.4421L81.1197 70.1169H77.1324L76.5725 73.3237H81.0688L80.7295 75.207H73.8408L75.9447 63.3469H82.8165L82.4941 65.2133H77.9978ZM89.4206 63.3639C90.6309 63.3639 91.5471 63.641 92.1693 64.1953C92.7914 64.7382 93.1025 65.4509 93.1025 66.3332C93.1025 66.5481 93.0855 66.7687 93.0516 66.9949C92.9158 67.7641 92.5652 68.4654 91.9996 69.0988C91.4453 69.721 90.6988 70.1564 89.7599 70.4053L91.7451 75.207H88.9794L87.2148 70.5919H86.078L85.2636 75.207H82.8712L84.9751 63.3639H89.4206ZM90.6083 67.0458C90.6309 66.8422 90.6422 66.7064 90.6422 66.6386C90.6422 66.2087 90.5065 65.875 90.235 65.6375C89.9635 65.4 89.5506 65.2812 88.9964 65.2812H87.0112L86.3834 68.8273H88.3686C89.002 68.8273 89.5054 68.669 89.8787 68.3523C90.2633 68.0355 90.5065 67.6 90.6083 67.0458ZM98.2372 75.3258C97.0495 75.3258 96.071 75.06 95.3018 74.5283C94.544 73.9854 94.165 73.2275 94.165 72.2547C94.165 72.1529 94.1763 72.0002 94.199 71.7966H96.6253C96.58 72.2717 96.7045 72.6619 96.9986 72.9674C97.304 73.2728 97.7451 73.4255 98.322 73.4255C98.8989 73.4255 99.3514 73.3067 99.6794 73.0692C100.019 72.8203 100.188 72.4696 100.188 72.0172C100.188 71.5987 100.013 71.265 99.6624 71.0161C99.3231 70.7673 98.7858 70.4901 98.0505 70.1847C97.3718 69.9019 96.8176 69.6418 96.3877 69.4042C95.9692 69.1667 95.6072 68.8387 95.3018 68.4201C95.0077 67.9903 94.8607 67.453 94.8607 66.8082C94.8607 66.073 95.0473 65.4339 95.4206 64.8909C95.8052 64.348 96.3255 63.9295 96.9816 63.6354C97.649 63.3413 98.4068 63.1942 99.2552 63.1942C100.092 63.1942 100.816 63.3356 101.427 63.6184C102.049 63.8899 102.513 64.2801 102.818 64.7891C103.135 65.2982 103.271 65.892 103.226 66.5707H100.697L100.714 66.3841C100.714 66.0108 100.573 65.7054 100.29 65.4678C100.019 65.2303 99.6341 65.1115 99.1364 65.1115C98.6048 65.1115 98.175 65.2359 97.8469 65.4848C97.5189 65.7337 97.3549 66.073 97.3549 66.5028C97.3549 66.7856 97.4454 67.0345 97.6264 67.2494C97.8186 67.453 98.0505 67.634 98.322 67.7923C98.5935 67.9394 98.9837 68.1317 99.4927 68.3692C100.16 68.6633 100.709 68.9405 101.139 69.2006C101.568 69.4608 101.936 69.8058 102.241 70.2356C102.547 70.6655 102.7 71.1914 102.7 71.8136C102.7 72.4923 102.513 73.0974 102.14 73.6291C101.778 74.1607 101.257 74.5792 100.579 74.8847C99.9113 75.1788 99.1308 75.3258 98.2372 75.3258Z" fill="black"/>
<path d="M56.9526 0.747321C48.1677 0.747498 43.9401 7.58243 42.4397 11.4794L25.7787 49.8116C25.4381 50.5952 26.0124 51.4711 26.8669 51.4711H28.6244H31.1743C31.6305 51.4711 32.0473 51.2165 32.244 50.7971C34.6547 45.6554 38.1755 37.8769 41.3427 30.8502C42.1196 29.1264 42.8752 27.4481 43.5879 25.8649C45.7816 20.9924 47.569 17.0222 48.3225 15.4075C49.3661 13.1711 50.2354 11.3693 51.4893 10.1154C52.722 8.88269 54.3472 8.16298 56.9526 8.16298H70.7459H84.8682C85.3252 8.16298 85.7415 7.9006 85.9386 7.4884L85.671 7.36041L85.9386 7.4884L88.3596 2.42638C88.7327 1.64639 88.1739 0.739578 87.3058 0.731495C82.1355 0.683353 73.6991 0.707175 66.3577 0.727905C62.8 0.737951 59.4995 0.74727 56.9526 0.747321Z" fill="black" stroke="black" stroke-width="0.59326"/>
<path d="M55.5195 15.7259L53.1584 20.3851C52.8584 20.9771 53.2886 21.6772 53.9522 21.6772H70.5349C71.1466 21.6772 71.5759 22.2802 71.3758 22.8582L69.3213 28.7936C69.1976 29.1506 68.862 29.3907 68.4841 29.3923L49.5179 29.4741C49.1685 29.4756 48.8523 29.6814 48.7096 30.0003L39.7165 50.0867C39.4529 50.6754 39.8837 51.3403 40.5287 51.3403H65.5792C65.9263 51.3403 66.2418 51.1384 66.3872 50.8233L69.1253 44.8907C69.3975 44.301 68.9668 43.6279 68.3174 43.6279H51.4147C50.7934 43.6279 50.3633 43.0073 50.5815 42.4255L52.5837 37.0862C52.714 36.7389 53.046 36.5088 53.417 36.5088H72.3938C72.7449 36.5088 73.0633 36.3022 73.2064 35.9815L81.9043 16.4908C82.167 15.9022 81.7362 15.2383 81.0917 15.2383H56.3132C55.9779 15.2383 55.671 15.4268 55.5195 15.7259Z" fill="black" stroke="black" stroke-width="0.59326"/>
</svg>
