<svg width="153" height="57" viewBox="0 0 153 57" fill="none" xmlns="http://www.w3.org/2000/svg">
<path d="M49.133 40.0615C49.3366 38.8964 49.7778 37.8557 50.4565 36.9395C51.1465 36.0119 51.9892 35.2937 52.9846 34.7847C53.9913 34.2643 55.0603 34.0042 56.1914 34.0042C57.5149 34.0042 58.6177 34.3435 59.5 35.0222C60.3823 35.7009 60.914 36.6397 61.0949 37.8388H58.3632C58.1822 37.2958 57.8712 36.8886 57.43 36.6171C56.9889 36.3343 56.4459 36.1929 55.8012 36.1929C55.1112 36.1929 54.4664 36.3513 53.8669 36.668C53.2787 36.9847 52.781 37.4372 52.3738 38.0254C51.9779 38.6136 51.7121 39.2923 51.5763 40.0615C51.5198 40.4234 51.4915 40.7232 51.4915 40.9607C51.4915 41.877 51.7516 42.6009 52.272 43.1325C52.8036 43.6642 53.5219 43.93 54.4268 43.93C55.0716 43.93 55.6654 43.7886 56.2084 43.5058C56.7513 43.223 57.2094 42.8102 57.5827 42.2672H60.3144C59.7036 43.4775 58.8383 44.422 57.7185 45.1007C56.6099 45.7681 55.3939 46.1018 54.0705 46.1018C53.0751 46.1018 52.1928 45.9039 51.4236 45.5079C50.6657 45.1007 50.0775 44.5295 49.659 43.7943C49.2405 43.059 49.0312 42.2163 49.0312 41.2661C49.0312 40.8702 49.0652 40.4687 49.133 40.0615ZM67.213 46.1188C66.2175 46.1188 65.3352 45.9095 64.5661 45.491C63.8082 45.0611 63.22 44.4729 62.8015 43.7264C62.3829 42.9685 62.1737 42.1032 62.1737 41.1304C62.1737 39.773 62.4734 38.5514 63.073 37.4655C63.6838 36.3796 64.5208 35.5312 65.5841 34.9204C66.6587 34.2983 67.8634 33.9872 69.1981 33.9872C70.2048 33.9872 71.0871 34.1965 71.845 34.615C72.6142 35.0335 73.2081 35.6217 73.6266 36.3796C74.0451 37.1261 74.2544 37.9801 74.2544 38.9416C74.2544 40.3216 73.9546 41.5546 73.3551 42.6405C72.7556 43.7264 71.9185 44.5804 70.8439 45.2025C69.7694 45.8134 68.559 46.1188 67.213 46.1188ZM67.5523 43.93C68.4007 43.93 69.1472 43.7151 69.792 43.2852C70.448 42.8554 70.9514 42.2785 71.3021 41.5546C71.664 40.8193 71.845 40.0219 71.845 39.1622C71.845 38.2347 71.5849 37.5051 71.0645 36.9734C70.5442 36.4418 69.8146 36.176 68.8757 36.176C68.0387 36.176 67.2921 36.3909 66.6361 36.8207C65.9913 37.2506 65.488 37.8274 65.126 38.5514C64.7753 39.2753 64.6 40.0671 64.6 40.9268C64.6 41.8543 64.8545 42.5896 65.3635 43.1325C65.8839 43.6642 66.6134 43.93 67.5523 43.93ZM90.0026 34.1569L87.9156 46H85.5233L86.8806 38.3308L82.3674 46H80.5519L78.7364 38.3138L77.379 46H74.9866L77.0905 34.1569H79.7883L82.011 42.9459L87.3048 34.1569H90.0026ZM100.326 37.8218C100.213 38.4552 99.9581 39.0491 99.5622 39.6033C99.1663 40.1576 98.6177 40.6044 97.9164 40.9438C97.2264 41.2831 96.395 41.4528 95.4222 41.4528H93.437L92.6396 46H90.2472L92.3511 34.1569H96.7117C97.922 34.1569 98.8383 34.4283 99.4604 34.9713C100.083 35.5029 100.394 36.2156 100.394 37.1092C100.394 37.3693 100.371 37.6069 100.326 37.8218ZM95.6597 39.5864C96.3045 39.5864 96.8135 39.428 97.1868 39.1113C97.5601 38.7946 97.7976 38.3647 97.8994 37.8218C97.922 37.72 97.9333 37.5729 97.9333 37.3806C97.9333 36.487 97.3791 36.0402 96.2706 36.0402H94.4042L93.7764 39.5864H95.6597ZM105.015 34.1569L103.726 41.4697C103.681 41.7865 103.658 42.007 103.658 42.1315C103.658 42.7197 103.833 43.1721 104.184 43.4888C104.535 43.7943 105.032 43.947 105.677 43.947C106.446 43.947 107.074 43.7377 107.561 43.3192C108.058 42.8893 108.381 42.2729 108.528 41.4697L109.817 34.1569H112.21L110.92 41.4697C110.739 42.4878 110.371 43.3475 109.817 44.0488C109.263 44.7388 108.59 45.2591 107.798 45.6098C107.018 45.9491 106.175 46.1188 105.27 46.1188C104.071 46.1188 103.098 45.8077 102.352 45.1856C101.616 44.5634 101.249 43.6698 101.249 42.5047C101.249 42.188 101.283 41.843 101.351 41.4697L102.64 34.1569H105.015ZM122.564 34.1569L122.225 36.0233H119.086L117.321 46H114.929L116.693 36.0233H113.538L113.877 34.1569H122.564ZM126.35 36.0063L125.807 39.0774H129.795L129.472 40.9098H125.485L124.925 44.1166H129.421L129.082 46H122.193L124.297 34.1399H131.169L130.847 36.0063H126.35ZM137.773 34.1569C138.983 34.1569 139.9 34.434 140.522 34.9883C141.144 35.5312 141.455 36.2438 141.455 37.1261C141.455 37.341 141.438 37.5616 141.404 37.7879C141.268 38.557 140.918 39.2583 140.352 39.8918C139.798 40.5139 139.051 40.9494 138.112 41.1983L140.098 46H137.332L135.567 41.3849H134.431L133.616 46H131.224L133.328 34.1569H137.773ZM138.961 37.8388C138.983 37.6351 138.995 37.4994 138.995 37.4315C138.995 37.0017 138.859 36.668 138.588 36.4305C138.316 36.1929 137.903 36.0742 137.349 36.0742H135.364L134.736 39.6203H136.721C137.355 39.6203 137.858 39.462 138.231 39.1452C138.616 38.8285 138.859 38.393 138.961 37.8388ZM146.59 46.1188C145.402 46.1188 144.424 45.853 143.654 45.3213C142.897 44.7784 142.518 44.0205 142.518 43.0477C142.518 42.9459 142.529 42.7932 142.552 42.5896H144.978C144.933 43.0647 145.057 43.4549 145.351 43.7603C145.657 44.0657 146.098 44.2184 146.675 44.2184C147.251 44.2184 147.704 44.0997 148.032 43.8621C148.371 43.6133 148.541 43.2626 148.541 42.8102C148.541 42.3916 148.366 42.0579 148.015 41.8091C147.676 41.5602 147.138 41.2831 146.403 40.9777C145.724 40.6949 145.17 40.4347 144.74 40.1972C144.322 39.9597 143.96 39.6316 143.654 39.2131C143.36 38.7833 143.213 38.246 143.213 37.6012C143.213 36.866 143.4 36.2269 143.773 35.6839C144.158 35.141 144.678 34.7224 145.334 34.4283C146.002 34.1342 146.759 33.9872 147.608 33.9872C148.445 33.9872 149.169 34.1286 149.78 34.4114C150.402 34.6828 150.865 35.0731 151.171 35.5821C151.488 36.0911 151.623 36.685 151.578 37.3637H149.05L149.067 37.177C149.067 36.8038 148.926 36.4983 148.643 36.2608C148.371 36.0233 147.987 35.9045 147.489 35.9045C146.957 35.9045 146.527 36.0289 146.199 36.2778C145.871 36.5266 145.707 36.866 145.707 37.2958C145.707 37.5786 145.798 37.8274 145.979 38.0424C146.171 38.246 146.403 38.427 146.675 38.5853C146.946 38.7324 147.336 38.9247 147.845 39.1622C148.513 39.4563 149.061 39.7334 149.491 39.9936C149.921 40.2538 150.289 40.5988 150.594 41.0286C150.899 41.4584 151.052 41.9844 151.052 42.6066C151.052 43.2852 150.865 43.8904 150.492 44.422C150.13 44.9537 149.61 45.3722 148.931 45.6776C148.264 45.9717 147.483 46.1188 146.59 46.1188Z" fill="black"/>
<path d="M16.2485 10.4385L1.24222 44.9636C0.935448 45.6694 1.45274 46.4583 2.22232 46.4583H3.80527H6.1019C6.51278 46.4583 6.88823 46.229 7.06537 45.8512C9.23669 41.2202 12.4078 34.2142 15.2604 27.8855C15.9602 26.3329 16.6407 24.8211 17.2827 23.3952C19.2584 19.0067 20.8683 15.4308 21.5469 13.9766C22.4869 11.9623 23.2699 10.3394 24.3992 9.21008C25.5095 8.09978 26.9733 7.45155 29.3199 7.45155H41.7432H54.4629C54.8745 7.45155 55.2495 7.21523 55.427 6.84396L57.6076 2.28471C57.9436 1.58219 57.4403 0.765444 56.6584 0.758163C52.0017 0.714803 44.4031 0.736259 37.7909 0.754929C34.5865 0.763978 31.6138 0.772371 29.3199 0.772418C21.4075 0.772577 17.5999 6.92863 16.2485 10.4385Z" fill="black" stroke="black" stroke-width="0.534337"/>
<path d="M28.0289 14.2634L25.9024 18.4599C25.6322 18.993 26.0196 19.6237 26.6173 19.6237H41.553C42.1039 19.6237 42.4906 20.1667 42.3104 20.6873L40.4599 26.0332C40.3486 26.3548 40.0463 26.571 39.7059 26.5725L22.6235 26.6461C22.3088 26.6474 22.024 26.8328 21.8954 27.1201L13.7955 45.2115C13.5581 45.7417 13.9461 46.3405 14.5271 46.3405H37.0896C37.4022 46.3405 37.6863 46.1587 37.8173 45.8749L40.2835 40.5315C40.5286 40.0004 40.1407 39.3941 39.5557 39.3941H24.3319C23.7722 39.3941 23.3849 38.8352 23.5814 38.3112L25.3848 33.5022C25.5021 33.1893 25.8011 32.9821 26.1352 32.9821H43.2272C43.5436 32.9821 43.8303 32.7961 43.9592 32.5072L51.7932 14.9524C52.0298 14.4222 51.6418 13.8242 51.0613 13.8242H28.7439C28.4418 13.8242 28.1654 13.994 28.0289 14.2634Z" fill="black" stroke="black" stroke-width="0.534337"/>
</svg>
