<svg width="59" height="47" viewBox="0 0 59 47" fill="none" xmlns="http://www.w3.org/2000/svg">
<path d="M16.3058 10.474L1.24313 45.1288C0.935206 45.8372 1.45444 46.629 2.22691 46.629H3.81581H6.12107C6.5335 46.629 6.91035 46.3989 7.08816 46.0197C9.26763 41.3713 12.4506 34.339 15.3139 27.9865C16.0164 26.428 16.6995 24.9106 17.3439 23.4793C19.327 19.0743 20.9429 15.485 21.6241 14.0253C22.5676 12.0035 23.3536 10.3745 24.4871 9.24093C25.6016 8.12645 27.0709 7.47579 29.4263 7.47579H41.8963H54.6638C55.0769 7.47579 55.4533 7.23858 55.6315 6.86592L57.8203 2.28954C58.1575 1.58438 57.6524 0.764562 56.8675 0.757254C52.1933 0.713731 44.5662 0.735268 37.9291 0.754009C34.7127 0.763091 31.7289 0.771516 29.4263 0.771563C21.4842 0.771722 17.6622 6.95092 16.3058 10.474Z" fill="black" stroke="black" stroke-width="0.536345"/>
<path d="M28.1302 14.3159L25.9957 18.528C25.7245 19.0632 26.1133 19.6962 26.7133 19.6962H41.7051C42.2581 19.6962 42.6462 20.2413 42.4653 20.7639L40.6079 26.1298C40.4961 26.4526 40.1927 26.6697 39.8511 26.6712L22.7044 26.745C22.3886 26.7464 22.1027 26.9325 21.9736 27.2208L13.8433 45.3802C13.605 45.9124 13.9945 46.5135 14.5776 46.5135H37.2249C37.5387 46.5135 37.8238 46.331 37.9553 46.0461L40.4308 40.6826C40.6768 40.1496 40.2874 39.541 39.7003 39.541H24.4192C23.8575 39.541 23.4687 38.9799 23.6659 38.454L25.4761 33.6269C25.5939 33.3129 25.894 33.1048 26.2294 33.1048H43.3856C43.7031 33.1048 43.9909 32.9181 44.1203 32.6282L51.9838 15.0074C52.2212 14.4752 51.8318 13.875 51.2491 13.875H28.8478C28.5447 13.875 28.2672 14.0454 28.1302 14.3159Z" fill="black" stroke="black" stroke-width="0.536345"/>
</svg>
